<?xml version="1.0" standalone="no"?>
<!DOCTYPE svg PUBLIC "-//W3C//DTD SVG 20010904//EN"
 "http://www.w3.org/TR/2001/REC-SVG-20010904/DTD/svg10.dtd">
<svg version="1.0" xmlns="http://www.w3.org/2000/svg"
 width="512.000000pt" height="512.000000pt" viewBox="0 0 512.000000 512.000000"
 preserveAspectRatio="xMidYMid meet">

<g transform="translate(0.000000,512.000000) scale(0.100000,-0.100000)"
fill="#000000" stroke="none">
<path d="M1656 4565 c-49 -17 -93 -59 -117 -110 -15 -33 -19 -65 -19 -190 0
-174 8 -212 57 -266 77 -85 206 -87 288 -5 54 54 65 100 65 261 0 161 -11 207
-64 260 -61 60 -133 78 -210 50z m105 -156 c19 -19 20 -30 17 -161 -3 -125 -5
-141 -22 -154 -27 -19 -42 -18 -66 6 -18 18 -20 33 -20 155 0 122 2 137 20
155 25 25 45 25 71 -1z"/>
<path d="M867 4349 c-79 -41 -123 -146 -98 -230 18 -61 138 -260 180 -301 127
-122 334 -30 334 148 0 47 -8 67 -63 166 -91 163 -114 193 -163 217 -56 27
-138 27 -190 0z m135 -146 c21 -25 127 -210 129 -225 6 -49 -26 -78 -66 -60
-23 11 -155 229 -155 256 0 41 64 61 92 29z"/>
<path d="M2388 4350 c-45 -24 -66 -52 -151 -200 -71 -124 -85 -173 -68 -238
39 -142 217 -197 326 -101 19 17 70 92 112 167 72 125 78 141 77 192 0 71 -31
131 -86 167 -55 37 -155 43 -210 13z m137 -154 c19 -28 19 -29 -72 -183 -54
-94 -77 -112 -112 -94 -40 22 -35 46 35 169 37 64 72 120 78 124 22 15 56 8
71 -16z"/>
<path d="M350 3809 c-139 -42 -191 -217 -96 -323 40 -45 275 -182 328 -191
138 -24 260 110 227 248 -16 69 -61 111 -210 195 -134 76 -183 90 -249 71z
m183 -206 c67 -39 123 -77 127 -88 10 -28 0 -55 -26 -67 -19 -9 -38 -2 -131
50 -141 79 -145 83 -145 117 0 27 23 55 46 55 5 0 63 -30 129 -67z"/>
<path d="M2988 3811 c-55 -18 -277 -153 -307 -186 -96 -109 -41 -287 101 -325
68 -19 113 -5 258 79 171 99 195 128 195 235 0 62 -4 78 -28 114 -43 66 -148
106 -219 83z m80 -157 c22 -15 29 -49 14 -70 -4 -6 -60 -42 -125 -79 -103 -59
-122 -66 -142 -57 -28 13 -40 44 -26 70 8 15 234 152 251 152 3 0 16 -7 28
-16z"/>
<path d="M1640 3799 c-215 -15 -426 -114 -586 -273 -323 -324 -373 -821 -120
-1200 30 -45 66 -92 80 -105 14 -14 26 -27 26 -31 0 -4 -25 -24 -55 -44 -61
-42 -166 -150 -212 -217 -247 -359 -189 -854 133 -1148 108 -99 242 -172 389
-213 78 -22 94 -22 757 -26 l678 -3 25 25 c28 29 32 70 9 101 -15 20 -30 20
-687 25 -651 6 -674 7 -750 28 -220 61 -393 205 -488 407 -193 411 41 901 486
1015 43 11 108 20 144 20 92 0 133 14 173 58 29 32 37 53 52 128 37 186 119
339 256 474 377 373 979 337 1323 -78 69 -84 107 -112 152 -112 l25 0 0 -419
0 -419 -28 -24 c-51 -43 -121 -137 -156 -210 -54 -115 -69 -196 -64 -340 4
-105 9 -135 35 -204 38 -101 88 -180 166 -261 l60 -63 -220 0 c-217 0 -220 0
-241 -23 -27 -29 -28 -67 -3 -98 l19 -24 739 0 738 0 80 23 c132 38 228 95
325 192 98 98 140 164 183 287 28 80 31 100 31 213 1 218 -58 366 -207 519
-64 66 -180 144 -248 166 l-50 17 8 57 c13 92 8 250 -10 321 -29 112 -99 239
-177 323 l-70 75 0 303 c0 167 -5 333 -10 369 -23 147 -118 271 -257 338 -75
36 -82 37 -188 37 -103 0 -114 -2 -178 -32 -125 -60 -198 -137 -245 -262 -25
-64 -26 -73 -30 -388 -2 -178 -7 -323 -11 -323 -4 0 -24 22 -44 49 -164 215
-445 368 -724 396 l-72 7 -40 72 c-44 81 -142 211 -171 226 -51 27 -113 -5
-113 -59 0 -21 10 -44 31 -69 39 -45 110 -146 118 -166 4 -10 -6 -16 -38 -21
-117 -19 -281 -87 -398 -164 -141 -92 -300 -279 -370 -436 -32 -72 -80 -233
-80 -271 0 -28 -17 -34 -90 -34 -64 0 -137 -13 -213 -37 -47 -15 -49 -15 -74
8 -47 44 -124 153 -159 225 -55 114 -76 211 -77 344 0 173 37 300 129 442 108
168 278 287 483 339 120 30 310 24 426 -14 97 -32 119 -33 146 -6 32 32 23 87
-18 115 -76 51 -286 85 -453 73z m2374 -179 c69 -26 130 -85 164 -158 l27 -57
5 -840 5 -840 75 -75 c121 -120 170 -237 170 -400 0 -155 -52 -282 -160 -390
-111 -111 -239 -164 -395 -164 -186 0 -345 81 -451 230 -66 93 -95 177 -101
295 -10 174 41 306 164 428 44 43 79 87 84 105 5 17 9 397 9 846 l0 815 24 50
c68 144 231 210 380 155z m436 -1282 c26 -81 31 -197 16 -328 -7 -61 -6 -82 7
-105 23 -45 56 -71 118 -95 183 -68 323 -231 364 -425 18 -88 19 -142 0 -230
-53 -252 -266 -434 -540 -461 l-70 -7 70 75 c82 87 127 159 161 258 64 184 47
394 -48 571 -32 62 -129 183 -153 193 -13 5 -15 53 -15 368 l1 363 33 -52 c18
-29 43 -85 56 -125z"/>
<path d="M3825 3527 c-52 -24 -102 -89 -115 -150 -7 -37 -10 -183 -8 -450 3
-365 4 -396 21 -415 37 -41 104 -33 126 15 7 16 11 153 11 428 0 354 2 406 16
419 18 19 28 20 55 6 19 -10 19 -32 20 -943 0 -513 4 -940 7 -950 4 -10 30
-34 57 -55 62 -47 92 -91 101 -148 20 -137 -91 -254 -231 -242 -184 15 -259
249 -118 366 25 20 56 47 69 59 l24 22 0 365 c0 246 -4 373 -11 389 -22 48
-89 56 -126 15 -16 -18 -18 -50 -23 -362 l-5 -342 -42 -38 c-24 -22 -57 -67
-75 -104 -30 -61 -33 -75 -33 -162 0 -85 3 -101 29 -154 54 -111 151 -183 274
-206 167 -30 340 72 402 237 48 129 8 297 -95 392 l-45 41 -2 918 -3 917 -24
42 c-37 64 -90 97 -165 100 -37 2 -73 -2 -91 -10z"/>
<path d="M175 3056 c-5 -3 -22 -7 -37 -10 -39 -9 -98 -64 -119 -111 -37 -80
-15 -171 54 -232 55 -48 92 -55 274 -51 161 3 161 3 205 33 61 43 88 95 88
171 0 77 -37 142 -102 176 -39 20 -58 23 -198 25 -85 1 -159 1 -165 -1z m293
-162 c28 -20 30 -69 3 -84 -11 -5 -79 -10 -152 -10 -109 0 -136 3 -151 17 -24
21 -23 48 2 73 18 18 33 20 148 20 99 0 132 -3 150 -16z"/>
<path d="M563 2409 c-35 -10 -268 -142 -297 -167 -23 -21 -51 -77 -60 -118
-12 -52 13 -122 58 -169 62 -65 144 -81 223 -45 87 39 253 142 281 175 80 91
53 244 -53 301 -49 27 -109 36 -152 23z m101 -182 c9 -35 -9 -51 -130 -121
-88 -51 -123 -66 -141 -61 -26 6 -43 38 -36 66 4 15 119 88 221 141 39 20 77
9 86 -25z"/>
</g>
</svg>
